<?xml version="1.0" encoding="UTF-8" standalone="no"?>
<svg
   width="145.84305mm"
   height="145.20615mm"
   viewBox="0 0 145.84305 145.20615"
   version="1.1"
   id="svg8"
   inkscape:version="1.2.2 (b0a8486541, 2022-12-01)"
   sodipodi:docname="ruleta.svg"
   xml:space="preserve"
   xmlns:inkscape="http://www.inkscape.org/namespaces/inkscape"
   xmlns:sodipodi="http://sodipodi.sourceforge.net/DTD/sodipodi-0.dtd"
   xmlns:xlink="http://www.w3.org/1999/xlink"
   xmlns="http://www.w3.org/2000/svg"
   xmlns:svg="http://www.w3.org/2000/svg"
   xmlns:rdf="http://www.w3.org/1999/02/22-rdf-syntax-ns#"
   xmlns:cc="http://creativecommons.org/ns#"
   xmlns:dc="http://purl.org/dc/elements/1.1/"><defs
     id="defs2"><linearGradient
       inkscape:collect="always"
       id="linearGradient921"><stop
         style="stop-color:#ffbd00;stop-opacity:1;"
         offset="0"
         id="stop917" /><stop
         style="stop-color:#dca825;stop-opacity:1;"
         offset="0.0001"
         id="stop7988" /><stop
         style="stop-color:#ffbb00;stop-opacity:1;"
         offset="0.00985391"
         id="stop7990" /><stop
         style="stop-color:#ffdd00;stop-opacity:1;"
         offset="0.03279823"
         id="stop7992" /><stop
         style="stop-color:#d6b869;stop-opacity:1;"
         offset="0.125"
         id="stop5010" /><stop
         style="stop-color:#ffbe00;stop-opacity:1;"
         offset="0.25"
         id="stop3056" /><stop
         style="stop-color:#af8b00;stop-opacity:1;"
         offset="0.375"
         id="stop5008" /><stop
         style="stop-color:#fff662;stop-opacity:1;"
         offset="0.5"
         id="stop1113" /><stop
         style="stop-color:#ffd100;stop-opacity:1;"
         offset="0.625"
         id="stop5006" /><stop
         style="stop-color:#ffcd00;stop-opacity:1;"
         offset="0.75"
         id="stop3054" /><stop
         style="stop-color:#fdea6b;stop-opacity:1;"
         offset="0.85892594"
         id="stop8240" /><stop
         style="stop-color:#fee335;stop-opacity:1;"
         offset="0.91338897"
         id="stop8242" /><stop
         style="stop-color:#ffdd00;stop-opacity:1;"
         offset="0.96785194"
         id="stop5012" /><stop
         style="stop-color:#ffbb00;stop-opacity:1;"
         offset="0.98658222"
         id="stop7994" /><stop
         style="stop-color:#dca825;stop-opacity:1;"
         offset="1"
         id="stop919" /></linearGradient><filter
       inkscape:collect="always"
       style="color-interpolation-filters:sRGB"
       id="filter2837"
       x="-0.026940167"
       y="-0.0270601"
       width="1.0538803"
       height="1.0541202"><feGaussianBlur
         inkscape:collect="always"
         stdDeviation="1.5483154"
         id="feGaussianBlur2839" /></filter><filter
       inkscape:collect="always"
       style="color-interpolation-filters:sRGB"
       id="filter5044"
       x="-0.55636064"
       y="-0.56059065"
       width="2.1127213"
       height="2.1211813"><feGaussianBlur
         inkscape:collect="always"
         stdDeviation="1.1851949"
         id="feGaussianBlur5046" /></filter><linearGradient
       inkscape:collect="always"
       xlink:href="#linearGradient921"
       id="linearGradient1051"
       x1="41.043591"
       y1="86.156197"
       x2="186.88663"
       y2="86.156197"
       gradientUnits="userSpaceOnUse" /></defs><sodipodi:namedview
     id="base"
     pagecolor="#ffffff"
     bordercolor="#666666"
     borderopacity="1.0"
     inkscape:pageopacity="0.0"
     inkscape:pageshadow="2"
     inkscape:zoom="0.7"
     inkscape:cx="-70"
     inkscape:cy="392.85714"
     inkscape:document-units="mm"
     inkscape:current-layer="layer3"
     inkscape:document-rotation="0"
     showgrid="false"
     inkscape:window-width="1920"
     inkscape:window-height="1011"
     inkscape:window-x="0"
     inkscape:window-y="0"
     inkscape:window-maximized="1"
     inkscape:showpageshadow="0"
     inkscape:pagecheckerboard="1"
     inkscape:deskcolor="#d1d1d1"
     showguides="true"><sodipodi:guide
       position="-73.344517,138.45788"
       orientation="0.70710678,-0.70710678"
       id="guide5519"
       inkscape:locked="false" /></sodipodi:namedview><metadata
     id="metadata5"><rdf:RDF><cc:Work
         rdf:about=""><dc:format>image/svg+xml</dc:format><dc:type
           rdf:resource="http://purl.org/dc/dcmitype/StillImage" /></cc:Work></rdf:RDF></metadata><g
     inkscape:label="Capa 1"
     inkscape:groupmode="layer"
     id="layer1"
     transform="translate(-41.04359,-13.553127)"><path
       id="ellipse1256"
       style="fill:#800000;fill-opacity:1;stroke-width:1.82842;stroke-linecap:round;stroke-linejoin:round;paint-order:markers fill stroke"
       d="M 95.428284,19.968807 A 68.399864,69.060417 0 0 0 65.633203,37.182227 L 113.19206,85.077494 Z" /><path
       id="ellipse916"
       style="fill:#ffffff;fill-opacity:1;stroke-width:1.82608;stroke-linecap:round;stroke-linejoin:round;paint-order:markers fill stroke"
       d="M 65.88125,37.350175 C 56.95714,45.953994 50.53274,56.810436 47.290137,68.766862 l 68.064583,18.608683 z"
       sodipodi:nodetypes="cccc" /><path
       id="path1358"
       style="fill:#800000;fill-opacity:1;stroke-width:1.82842;stroke-linecap:round;stroke-linejoin:round;paint-order:markers fill stroke"
       d="m 132.27499,19.893513 a 68.399864,69.060417 0 0 1 29.79508,17.213419 L 114.51121,85.0022 Z" /><path
       id="path1360"
       style="fill:#ffffff;fill-opacity:1;stroke-width:1.82608;stroke-linecap:round;stroke-linejoin:round;paint-order:markers fill stroke"
       d="m 162.03116,37.041783 c 8.92411,8.603819 15.34851,19.460261 18.59111,31.416687 l -68.06458,18.608683 z"
       sodipodi:nodetypes="cccc" /><path
       id="path1366"
       style="fill:#ffffff;fill-opacity:1;stroke-width:1.82608;stroke-linecap:round;stroke-linejoin:round;paint-order:markers fill stroke"
       d="m 132.27518,19.893512 c -11.95251,-3.286795 -24.85437,-3.215516 -36.792274,0.0946 l 18.375434,68.016967 z"
       sodipodi:nodetypes="cccc" /><path
       id="path1368"
       style="fill:#800000;fill-opacity:1;stroke-width:1.82842;stroke-linecap:round;stroke-linejoin:round;paint-order:markers fill stroke"
       d="m 180.67453,68.468933 a 68.399864,69.060417 59.818953 0 1 0.099,34.409867 l -65.3121,-17.033253 z" /><path
       id="path1370"
       style="fill:#ffffff;fill-opacity:1;stroke-width:1.82608;stroke-linecap:round;stroke-linejoin:round;paint-order:markers fill stroke"
       d="m 180.77251,102.87766 c -2.95105,12.0398 -9.21571,22.61821 -17.92117,31.43215 L 111.45451,85.0022 Z"
       sodipodi:nodetypes="cccc" /><path
       id="path1378"
       style="fill:#800000;fill-opacity:1;stroke-width:1.82842;stroke-linecap:round;stroke-linejoin:round;paint-order:markers fill stroke"
       d="m 162.90152,134.23389 c -7.99802,8.45219 -18.09698,14.62081 -29.24714,18.11093 L 113.39507,86.556839 Z"
       sodipodi:nodetypes="cccc" /><path
       id="path1380"
       style="fill:#ffffff;fill-opacity:1;stroke-width:1.82608;stroke-linecap:round;stroke-linejoin:round;paint-order:markers fill stroke"
       d="m 133.65048,152.34482 c -11.96146,3.25407 -26.9749,3.34277 -38.903709,0 L 113.76674,87.459593 Z"
       sodipodi:nodetypes="cccc" /><path
       id="path1388"
       style="fill:#800000;fill-opacity:1;stroke-width:1.82842;stroke-linecap:round;stroke-linejoin:round;paint-order:markers fill stroke"
       d="M 94.812775,152.34482 C 83.593319,149.25749 73.338682,143.33312 65.017695,135.1314 L 113.87904,86.726019 Z"
       sodipodi:nodetypes="cccc" /><path
       id="path1429"
       style="fill:#800000;fill-opacity:1;stroke-width:1.82842;stroke-linecap:round;stroke-linejoin:round;paint-order:markers fill stroke"
       d="M 47.464983,68.468931 A 69.060417,68.399864 30.876092 0 0 46.948568,102.87506 L 112.46248,86.635335 Z" /><path
       id="path1431"
       style="fill:#ffffff;fill-opacity:1;stroke-width:1.82608;stroke-linecap:round;stroke-linejoin:round;paint-order:markers fill stroke"
       d="m 47.220008,102.74836 c 2.804775,12.07471 9.199786,23.45119 17.797687,32.37008 L 115.54469,85.95849 Z"
       sodipodi:nodetypes="cccc" /><ellipse
       style="fill:#000000;fill-opacity:1;stroke-width:0.0677625;stroke-linecap:round;stroke-linejoin:round;paint-order:markers fill stroke;filter:url(#filter5044)"
       id="ellipse5042"
       cx="113.87904"
       cy="86.314842"
       rx="2.5563164"
       ry="2.5370274" /><ellipse
       style="fill:#800000;fill-opacity:1;stroke-width:0.0677625;stroke-linecap:round;stroke-linejoin:round;paint-order:markers fill stroke"
       id="ellipse1349-3"
       cx="113.87904"
       cy="86.314842"
       rx="2.5563164"
       ry="2.5370274" /><path
       id="ellipse1378"
       style="fill:#000000;fill-opacity:0.52103;stroke-width:1.83067;stroke-linecap:round;stroke-linejoin:round;paint-order:markers fill stroke;filter:url(#filter2837)"
       d="M 113.96206,17.496551 A 68.966721,68.661163 0 0 0 44.995208,86.157477 68.966721,68.661163 0 0 0 113.96206,154.81892 68.966721,68.661163 0 0 0 182.92891,86.157477 68.966721,68.661163 0 0 0 113.96206,17.496551 Z m 0,2.633948 A 66.320923,66.027039 0 0 1 180.28307,86.157477 66.320923,66.027039 0 0 1 113.96206,152.18445 66.320923,66.027039 0 0 1 47.641041,86.157477 66.320923,66.027039 0 0 1 113.96206,20.130499 Z" /><path
       id="ellipse1349"
       style="fill:url(#linearGradient1051);fill-opacity:1;stroke-width:1.92193;stroke-linecap:round;stroke-linejoin:round;paint-order:markers fill stroke"
       d="m 109.88672,13.65625 c -3.76122,0.257236 -7.51146,0.711861 -11.197193,1.516288 -3.37807,0.722966 -6.713033,1.673039 -9.951885,2.87679 -3.746358,1.364637 -7.375214,3.051518 -10.84375,5.015873 -3.526393,1.995856 -6.884562,4.287947 -10.027705,6.844164 -3.143324,2.553574 -6.072092,5.369107 -8.750652,8.405692 -2.670606,3.040348 -5.086928,6.301509 -7.222285,9.738176 -1.955585,3.163721 -3.659939,6.47628 -5.1257,9.894072 -1.535129,3.666557 -2.795511,7.448782 -3.721462,11.315759 -0.945889,3.927637 -1.555041,7.935674 -1.832191,11.9665 -0.275846,3.996462 -0.217654,8.017102 0.182254,12.003841 0.327997,3.389194 0.898398,6.758671 1.713817,10.064765 0.943087,3.89586 2.222592,7.7094 3.802292,11.39231 1.59622,3.71574 3.502598,7.29647 5.692665,10.69544 2.197237,3.39834 4.674227,6.61379 7.398054,9.60583 2.512695,2.7468 5.236434,5.29299 8.127635,7.63734 3.138368,2.50825 6.471722,4.77107 9.972931,6.74331 3.535278,1.98364 7.233318,3.67535 11.047626,5.04987 3.846252,1.38521 7.809094,2.44479 11.832049,3.17389 3.99336,0.71288 8.04494,1.10725 12.10225,1.15324 16.8935,0.28468 33.79726,-5.59947 46.89903,-16.2627 12.69012,-10.22013 21.751,-24.84004 25.21319,-40.76512 1.67369,-7.510861 2.09286,-15.287838 1.30463,-22.939458 -0.41133,-3.9848 -1.14655,-7.936887 -2.21471,-11.798833 -0.90017,-3.28521 -2.03527,-6.510227 -3.40046,-9.631232 -1.58865,-3.681764 -3.4962,-7.225465 -5.6795,-10.587778 -2.18152,-3.369106 -4.65042,-6.550382 -7.35583,-9.513932 -2.51283,-2.746348 -5.24568,-5.28203 -8.13501,-7.627547 -3.11858,-2.480435 -6.42291,-4.726002 -9.89653,-6.680746 -3.53659,-1.980682 -7.23426,-3.673349 -11.04762,-5.049875 -3.84625,-1.385207 -7.8091,-2.444786 -11.83206,-3.173883 -3.99319,-0.714114 -8.04503,-1.104678 -12.10224,-1.151328 -1.65005,-0.05401 -3.30145,0.06586 -4.95164,0.08928 z m 4.07617,4.867188 c 3.60512,0.04822 7.21067,0.286297 10.77011,0.876946 3.34125,0.52775 6.64588,1.313566 9.86749,2.34482 3.6099,1.131374 7.11605,2.588589 10.48299,4.310609 3.20482,1.640175 6.25966,3.555206 9.17703,5.662174 3.08826,2.291536 6.00017,4.819218 8.67358,7.585126 2.67973,2.788226 5.13478,5.79404 7.30159,8.998751 1.82154,2.684829 3.46337,5.497722 4.86961,8.42232 1.68853,3.472854 3.08099,7.090807 4.14543,10.802276 0.99949,3.449911 1.69766,6.978996 2.15389,10.540551 0.44385,4.006684 0.61795,8.050197 0.37664,12.07752 -0.38001,6.439151 -1.72202,12.960819 -3.93695,19.022839 -2.76667,7.63569 -6.94818,14.76764 -12.21735,20.9088 -2.85843,3.33002 -6.07203,6.41236 -9.50488,9.11552 -9.0024,7.08507 -19.58943,11.76522 -30.91204,13.66429 -5.85415,0.98495 -11.78885,1.18229 -17.70443,0.60195 -3.39324,-0.302 -6.76202,-0.89354 -10.066515,-1.71755 -3.497909,-0.86265 -6.909549,-2.03629 -10.234176,-3.41994 -3.381087,-1.48201 -6.674723,-3.17117 -9.781674,-5.16958 -2.76809,-1.7535 -5.411179,-3.7136 -7.890622,-5.85681 -3.041195,-2.61223 -5.850062,-5.49763 -8.370604,-8.61469 -2.428314,-2.97438 -4.5929,-6.16507 -6.473737,-9.5116 -1.773194,-3.11317 -3.234277,-6.39056 -4.509717,-9.73581 -1.26567,-3.52644 -2.28404,-7.14107 -2.976606,-10.824679 -0.709128,-3.795668 -1.100837,-7.652112 -1.149521,-11.514177 -0.05232,-3.204689 0.141401,-6.415164 0.550101,-9.593594 0.44992,-3.587716 1.241912,-7.12128 2.237809,-10.594911 1.098007,-3.581435 2.451075,-7.084238 4.103239,-10.44776 1.674241,-3.403924 3.631185,-6.670907 5.85983,-9.741766 1.90692,-2.672718 4.038191,-5.185948 6.320315,-7.544974 2.501325,-2.585734 5.223253,-4.947042 8.088499,-7.120484 3.046027,-2.236535 6.247314,-4.262549 9.612784,-5.985554 3.365202,-1.723426 6.870603,-3.180358 10.479219,-4.312538 3.181404,-1.022879 6.446307,-1.795488 9.744586,-2.330444 3.55609,-0.589785 7.15693,-0.847908 10.75933,-0.89356 0.0516,9.67e-4 0.10314,-0.0047 0.15475,-0.0041 z" /></g><g
     inkscape:groupmode="layer"
     id="layer3"
     inkscape:label="Text"
     transform="translate(3.951619,3.913452)"><text
       xml:space="preserve"
       style="font-size:5.64444px;font-family:'Gumbo DEMO';-inkscape-font-specification:'Gumbo DEMO';text-align:center;text-anchor:middle;fill:#800000;fill-opacity:1;stroke:none;stroke-width:0.363;stroke-linecap:round;stroke-linejoin:round;stroke-dasharray:none;stroke-opacity:1;paint-order:markers fill stroke"
       x="60.713165"
       y="97.52108"
       id="text5129"
       transform="rotate(-31.191144)"><tspan
         sodipodi:role="line"
         id="tspan5127"
         style="font-size:5.64444px;fill:#800000;fill-opacity:1;stroke:none;stroke-width:0.363;stroke-dasharray:none;stroke-opacity:1"
         x="60.713165"
         y="97.52108">Virgin until the grave</tspan></text><text
       xml:space="preserve"
       style="font-size:5.64444px;font-family:'Gumbo DEMO';-inkscape-font-specification:'Gumbo DEMO';text-align:center;text-anchor:middle;fill:#800000;fill-opacity:1;stroke:none;stroke-width:0.363;stroke-linecap:round;stroke-linejoin:round;stroke-dasharray:none;stroke-opacity:1;paint-order:markers fill stroke"
       x="69.343132"
       y="99.466286"
       id="text5129-6"
       transform="rotate(-31.191144)"><tspan
         sodipodi:role="line"
         id="tspan5127-7"
         style="font-size:5.64444px;fill:#800000;fill-opacity:1;stroke:none;stroke-width:0.363;stroke-dasharray:none;stroke-opacity:1"
         x="69.343132"
         y="99.466286" /></text><text
       xml:space="preserve"
       style="font-size:5.64444px;font-family:'Gumbo DEMO';-inkscape-font-specification:'Gumbo DEMO';text-align:center;text-anchor:middle;fill:#ffffff;fill-opacity:1;stroke:none;stroke-width:0.363;stroke-linecap:round;stroke-linejoin:round;stroke-dasharray:none;stroke-opacity:1;paint-order:markers fill stroke"
       x="109.00387"
       y="68.573303"
       id="text5129-5"
       transform="rotate(1.3251082)"><tspan
         sodipodi:role="line"
         id="tspan5127-3"
         style="font-size:5.64444px;fill:#ffffff;fill-opacity:1;stroke:none;stroke-width:0.363;stroke-dasharray:none;stroke-opacity:1"
         x="109.00387"
         y="68.573303">He/She loves you!</tspan></text><text
       xml:space="preserve"
       style="font-size:5.64444px;font-family:'Gumbo DEMO';-inkscape-font-specification:'Gumbo DEMO';text-align:center;text-anchor:middle;fill:#ffffff;fill-opacity:1;stroke:none;stroke-width:0.363;stroke-linecap:round;stroke-linejoin:round;stroke-dasharray:none;stroke-opacity:1;paint-order:markers fill stroke"
       x="133.13914"
       y="-6.6853881"
       id="text5985"
       transform="rotate(51.063787)"><tspan
         sodipodi:role="line"
         id="tspan5983"
         style="font-size:5.64444px;fill:#ffffff;fill-opacity:1;stroke:none;stroke-width:0.363;stroke-dasharray:none;stroke-opacity:1"
         x="133.13914"
         y="-6.6853881">Does not love you</tspan></text><text
       xml:space="preserve"
       style="font-size:5.64444px;font-family:'Gumbo DEMO';-inkscape-font-specification:'Gumbo DEMO';text-align:center;text-anchor:middle;fill:#ffffff;fill-opacity:1;stroke:none;stroke-width:0.363;stroke-linecap:round;stroke-linejoin:round;stroke-dasharray:none;stroke-opacity:1;paint-order:markers fill stroke"
       x="17.339542"
       y="96.526009"
       id="text7093"
       transform="rotate(-57.913279)"><tspan
         sodipodi:role="line"
         id="tspan7091"
         style="font-size:5.64444px;fill:#ffffff;fill-opacity:1;stroke:none;stroke-width:0.363;stroke-dasharray:none;stroke-opacity:1"
         x="17.339542"
         y="96.526009">Platonic love</tspan></text><text
       xml:space="preserve"
       style="font-size:5.64444px;font-family:'Gumbo DEMO';-inkscape-font-specification:'Gumbo DEMO';text-align:center;text-anchor:middle;fill:#ffffff;fill-opacity:1;stroke:none;stroke-width:0.363;stroke-linecap:round;stroke-linejoin:round;stroke-dasharray:none;stroke-opacity:1;paint-order:markers fill stroke"
       x="56.890533"
       y="-95.25074"
       id="text7097"
       transform="rotate(124.10548)"><tspan
         sodipodi:role="line"
         id="tspan7095"
         style="font-size:5.64444px;fill:#ffffff;fill-opacity:1;stroke:none;stroke-width:0.363;stroke-dasharray:none;stroke-opacity:1"
         x="56.890533"
         y="-95.25074">Loves you as a friend</tspan></text><text
       xml:space="preserve"
       style="font-size:5.64444px;font-family:'Gumbo DEMO';-inkscape-font-specification:'Gumbo DEMO';text-align:center;text-anchor:middle;fill:#800000;fill-opacity:1;stroke:none;stroke-width:0.363;stroke-linecap:round;stroke-linejoin:round;stroke-dasharray:none;stroke-opacity:1;paint-order:markers fill stroke"
       x="17.522625"
       y="-93.238426"
       id="text7101"
       transform="rotate(145.96975)"><tspan
         sodipodi:role="line"
         id="tspan7099"
         style="font-size:5.64444px;fill:#800000;fill-opacity:1;stroke:none;stroke-width:0.363;stroke-dasharray:none;stroke-opacity:1"
         x="17.522625"
         y="-93.238426">Does not love you</tspan></text><text
       xml:space="preserve"
       style="font-size:5.64444px;font-family:'Gumbo DEMO';-inkscape-font-specification:'Gumbo DEMO';text-align:center;text-anchor:middle;fill:#800000;fill-opacity:1;stroke:none;stroke-width:0.363;stroke-linecap:round;stroke-linejoin:round;stroke-dasharray:none;stroke-opacity:1;paint-order:markers fill stroke"
       x="127.99542"
       y="34.713188"
       id="text7243"
       transform="rotate(25.20649)"><tspan
         sodipodi:role="line"
         id="tspan7241"
         style="font-size:5.64444px;fill:#800000;fill-opacity:1;stroke:none;stroke-width:0.363;stroke-dasharray:none;stroke-opacity:1"
         x="127.99542"
         y="34.713188">Loves you as a friend</tspan></text><text
       xml:space="preserve"
       style="font-size:5.64444px;font-family:'Gumbo DEMO';-inkscape-font-specification:'Gumbo DEMO';text-align:center;text-anchor:middle;fill:#ffffff;fill-opacity:1;stroke:none;stroke-width:0.363;stroke-linecap:round;stroke-linejoin:round;stroke-dasharray:none;stroke-opacity:1;paint-order:markers fill stroke"
       x="-33.885765"
       y="-63.502876"
       id="text7249"
       transform="rotate(-176.18896)"><tspan
         sodipodi:role="line"
         id="tspan7247"
         style="font-size:5.64444px;fill:#ffffff;fill-opacity:1;stroke:none;stroke-width:0.363;stroke-dasharray:none;stroke-opacity:1"
         x="-33.885765"
         y="-63.502876">Loves you as a friend</tspan></text><text
       xml:space="preserve"
       style="font-size:5.64444px;font-family:'Gumbo DEMO';-inkscape-font-specification:'Gumbo DEMO';text-align:center;text-anchor:middle;fill:#800000;fill-opacity:1;stroke:none;stroke-width:0.363;stroke-linecap:round;stroke-linejoin:round;stroke-dasharray:none;stroke-opacity:1;paint-order:markers fill stroke"
       x="-57.237747"
       y="-26.895124"
       id="text7253"
       transform="rotate(-152.61946)"><tspan
         sodipodi:role="line"
         id="tspan7251"
         style="font-size:5.64444px;fill:#800000;fill-opacity:1;stroke:none;stroke-width:0.363;stroke-dasharray:none;stroke-opacity:1"
         x="-57.237747"
         y="-26.895124">Does not love you</tspan></text><text
       xml:space="preserve"
       style="font-size:5.64444px;font-family:'Gumbo DEMO';-inkscape-font-specification:'Gumbo DEMO';text-align:center;text-anchor:middle;fill:#800000;fill-opacity:1;stroke:none;stroke-width:0.363;stroke-linecap:round;stroke-linejoin:round;stroke-dasharray:none;stroke-opacity:1;paint-order:markers fill stroke"
       x="127.99542"
       y="34.713188"
       id="text7257"
       transform="rotate(25.20649)"><tspan
         sodipodi:role="line"
         id="tspan7255"
         style="font-size:5.64444px;fill:#800000;fill-opacity:1;stroke:none;stroke-width:0.363;stroke-dasharray:none;stroke-opacity:1"
         x="127.99542"
         y="34.713188">Loves you as a friend</tspan></text><text
       xml:space="preserve"
       style="font-size:5.64444px;font-family:'Gumbo DEMO';-inkscape-font-specification:'Gumbo DEMO';text-align:center;text-anchor:middle;fill:#800000;fill-opacity:1;stroke:none;stroke-width:0.363;stroke-linecap:round;stroke-linejoin:round;stroke-dasharray:none;stroke-opacity:1;paint-order:markers fill stroke"
       x="113.45021"
       y="-57.810963"
       id="text7261"
       transform="rotate(83.445825)"><tspan
         sodipodi:role="line"
         id="tspan7259"
         style="font-size:5.64444px;fill:#800000;fill-opacity:1;stroke:none;stroke-width:0.363;stroke-dasharray:none;stroke-opacity:1"
         x="113.45021"
         y="-57.810963">Loves you as a friend</tspan></text><text
       xml:space="preserve"
       style="font-size:5.64444px;font-family:'Gumbo DEMO';-inkscape-font-specification:'Gumbo DEMO';text-align:center;text-anchor:middle;fill:#ffffff;fill-opacity:1;stroke:none;stroke-width:0.363;stroke-linecap:round;stroke-linejoin:round;stroke-dasharray:none;stroke-opacity:1;paint-order:markers fill stroke"
       x="-57.071289"
       y="25.0756"
       id="text7265"
       transform="rotate(-121.22092)"><tspan
         sodipodi:role="line"
         id="tspan7263"
         style="font-size:5.64444px;fill:#ffffff;fill-opacity:1;stroke:none;stroke-width:0.363;stroke-dasharray:none;stroke-opacity:1"
         x="-57.071289"
         y="25.0756">Loves you as a friend</tspan></text><text
       xml:space="preserve"
       style="font-size:5.64444px;font-family:'Gumbo DEMO';-inkscape-font-specification:'Gumbo DEMO';text-align:center;text-anchor:middle;fill:#800000;fill-opacity:1;stroke:none;stroke-width:0.363;stroke-linecap:round;stroke-linejoin:round;stroke-dasharray:none;stroke-opacity:1;paint-order:markers fill stroke"
       x="-35.454475"
       y="69.488724"
       id="text7269"
       transform="rotate(-90.863477)"><tspan
         sodipodi:role="line"
         id="tspan7267"
         style="font-size:5.64444px;fill:#800000;fill-opacity:1;stroke:none;stroke-width:0.363;stroke-dasharray:none;stroke-opacity:1"
         x="-35.454475"
         y="69.488724">Friends with benefits</tspan></text></g><g
     inkscape:groupmode="layer"
     id="layer2"
     inkscape:label="cono"
     transform="translate(-41.04359,-13.553127)" /></svg>
